# xmcd
#
# Track frame offsets: 
#        150
#        18532
#        33332
#        48175
#        64365
#        74435
#        95425
#        114262
#        131562
#        141030
#        161540
#        170535
#        183680
#        195507
#        214012
#        220735
#        238602
#        252027
#        267380
#        286690
#        297605
#        311037
#        320995
#        332987
#
# Disc length: 4644 seconds
#
# Revision: 1
# Processed by: cddbd v1.5.2PL0 Copyright (c) Steve Scherf et al.
# Submitted via: ExactAudioCopyFreeDBPlugin 1.0
#
DISCID=77122218
DTITLE=Various Artist - HARD TRANCE RAVE #01
DYEAR=2004
DGENRE=Techno
TTITLE0=NEVER FALL IN LOVE (CLUB MIX) - POINT GUARDS
TTITLE1=HALLO (OLE VAN DANSK REMIX) - BEAMISH
TTITLE2=WHEELES 2002 (VIDEO MIX) - ALPHATEAM FEAT. ANIKA
TTITLE3=GET DOWN (GET DOWN REMIX) - POTATOHEADS FEAT. DA ROOK MC
TTITLE4=HOW OLD R U (SPECIAL D REMIX) - MASTER BLASTER
TTITLE5=MINDBLOWING - TOMS PROJECT
TTITLE6=KAMINARI (DUB) - YOMANDA VS DJ UTO
TTITLE7=MOVE IT (BARRUCCO'S X-TRA LONG MIX) - MC MARIO
TTITLE8=IT'S TIME (TO MAKE THE FLOOR BURN) (ALTERNATIVE EXTENDED) - BL
TTITLE8=ACK SHADOW
TTITLE9=JAMES BROWN IS DEAD 2002 (GARY D. DEADLY HARD BASS MIXX) - H.A
TTITLE9=Z.A.R.D.
TTITLE10=BEAT BANGS (PINBALL REMIX) - PULSE DRIVER
TTITLE11=ANOTHER LIFE (HOT STEPPAZ REMIX) - MASTER BLASTER
TTITLE12=I ENGINEER (DJ R.O.C.K CLUB MIX) - 2DJ'S and ONE
TTITLE13=GET DOWN (AGAIN) (MEGARA VS DJ LEE REMIX) - AVANTGARDE
TTITLE14=TELL ME (ORIGINAL EXTENDED) - M-SHAPE
TTITLE15=DANCE (MEGARA VS DJ LEE REMIX) - APOLLO
TTITLE16=NEURO (ADDITIVE MIX) - X-CABS
TTITLE17=CAUSE I LOVE YOU NO MORE (ESCANOR CLUB REMIX) - E-LOVE
TTITLE18=SUNFLOWER (OLE VAN DANSK REMIX) - AIRTRIBE
TTITLE19=PURE STUFF (CLUB MIX) - TERRA and ONE
TTITLE20=A WALK IN THE PARK (CLUB MIX) - STARFIELD FEATURING NICK STRA
TTITLE20=KER
TTITLE21=BALLET DANCER (CLUB MIX) - MASTER BLASTER VS TURBO B.
TTITLE22=HAVE YOU EVER... (CLUB MIX) - CLUBSPEAKERS
TTITLE23=FEEL THE STARS (WAVESCOPE REMIX) - UNIT 5
EXTD=
EXTT0=
EXTT1=
EXTT2=
EXTT3=
EXTT4=
EXTT5=
EXTT6=
EXTT7=
EXTT8=
EXTT9=
EXTT10=
EXTT11=
EXTT12=
EXTT13=
EXTT14=
EXTT15=
EXTT16=
EXTT17=
EXTT18=
EXTT19=
EXTT20=
EXTT21=
EXTT22=
EXTT23=
PLAYORDER=
